<mxfile host="app.diagrams.net" agent="Mozilla/5.0 (X11; Linux x86_64) AppleWebKit/537.36 (KHTML, like Gecko) Chrome/104.0.0.0 Safari/537.36" version="24.7.7">
  <diagram name="Page-1" id="9fKiKv79UHNWl5XRoCAN">
    <mxGraphModel dx="654" dy="384" grid="1" gridSize="10" guides="1" tooltips="1" connect="1" arrows="1" fold="1" page="1" pageScale="1" pageWidth="5000" pageHeight="5000" math="0" shadow="0">
      <root>
        <mxCell id="0" />
        <mxCell id="1" parent="0" />
        <mxCell id="rRtqg3W6HhMljFoJ2nGh-5" value="" style="edgeStyle=orthogonalEdgeStyle;rounded=0;orthogonalLoop=1;jettySize=auto;html=1;" edge="1" parent="1" source="rRtqg3W6HhMljFoJ2nGh-1" target="rRtqg3W6HhMljFoJ2nGh-4">
          <mxGeometry relative="1" as="geometry" />
        </mxCell>
        <mxCell id="rRtqg3W6HhMljFoJ2nGh-1" value="Grn-gelu conv module" style="rounded=0;whiteSpace=wrap;html=1;" vertex="1" parent="1">
          <mxGeometry x="480" y="320" width="120" height="40" as="geometry" />
        </mxCell>
        <mxCell id="rRtqg3W6HhMljFoJ2nGh-2" value="" style="endArrow=classic;html=1;rounded=0;entryX=0;entryY=0.5;entryDx=0;entryDy=0;" edge="1" parent="1">
          <mxGeometry width="50" height="50" relative="1" as="geometry">
            <mxPoint x="440" y="339.8" as="sourcePoint" />
            <mxPoint x="480" y="339.8" as="targetPoint" />
          </mxGeometry>
        </mxCell>
        <mxCell id="rRtqg3W6HhMljFoJ2nGh-3" value="" style="endArrow=classic;html=1;rounded=0;entryX=0;entryY=0.5;entryDx=0;entryDy=0;" edge="1" parent="1">
          <mxGeometry width="50" height="50" relative="1" as="geometry">
            <mxPoint x="600" y="339.8" as="sourcePoint" />
            <mxPoint x="640" y="339.8" as="targetPoint" />
          </mxGeometry>
        </mxCell>
        <mxCell id="rRtqg3W6HhMljFoJ2nGh-4" value="Convolution(k=2,s=2)" style="rounded=0;whiteSpace=wrap;html=1;" vertex="1" parent="1">
          <mxGeometry x="640" y="320" width="120" height="40" as="geometry" />
        </mxCell>
        <mxCell id="rRtqg3W6HhMljFoJ2nGh-6" value="" style="endArrow=classic;html=1;rounded=0;entryX=0;entryY=0.5;entryDx=0;entryDy=0;" edge="1" parent="1">
          <mxGeometry width="50" height="50" relative="1" as="geometry">
            <mxPoint x="760" y="339.71000000000004" as="sourcePoint" />
            <mxPoint x="800" y="339.71000000000004" as="targetPoint" />
          </mxGeometry>
        </mxCell>
        <mxCell id="rRtqg3W6HhMljFoJ2nGh-7" value="" style="shape=curlyBracket;whiteSpace=wrap;html=1;rounded=1;flipH=1;labelPosition=right;verticalLabelPosition=middle;align=left;verticalAlign=middle;rotation=-90;" vertex="1" parent="1">
          <mxGeometry x="690" y="240" width="20" height="120" as="geometry" />
        </mxCell>
        <mxCell id="rRtqg3W6HhMljFoJ2nGh-8" value="Downsample layer" style="text;html=1;align=center;verticalAlign=middle;whiteSpace=wrap;rounded=0;" vertex="1" parent="1">
          <mxGeometry x="645" y="260" width="110" height="30" as="geometry" />
        </mxCell>
      </root>
    </mxGraphModel>
  </diagram>
</mxfile>
